<svg width="549" height="479" viewBox="0 0 549 479" fill="none" xmlns="http://www.w3.org/2000/svg"> <path d="M354.132 425.671C208.365 494.537 44.8922 456.273 -16.9137 340.765C-15.6179 343.905 -14.2386 347.025 -12.7749 350.123C45.1425 472.715 213.325 514.82 362.871 444.168C512.417 373.517 586.697 216.862 528.779 94.2704C527.315 91.1721 525.781 88.1253 524.179 85.1304C574.154 206.227 499.898 356.805 354.132 425.671Z" fill="url(#paint0_linear_3912_4466)"/> <path d="M336.654 388.675C190.887 457.542 27.4141 419.278 -34.3918 303.77C-33.096 306.91 -31.7167 310.03 -30.253 313.128C27.6643 435.719 195.847 477.825 345.393 407.173C494.939 336.521 569.218 179.867 511.301 57.2752C509.837 54.1769 508.303 51.13 506.7 48.1351C556.676 169.232 482.42 319.809 336.654 388.675Z" fill="url(#paint1_linear_3912_4466)"/> <path d="M-51.8699 266.775C9.93602 382.283 173.409 420.547 319.176 351.68C464.942 282.814 539.198 132.237 489.222 11.1398C490.825 14.1347 492.359 17.1816 493.823 20.2799C551.74 142.871 477.461 299.526 327.915 370.178C178.369 440.83 10.1862 398.724 -47.7311 276.133C-49.1948 273.035 -50.5741 269.915 -51.8699 266.775Z" fill="url(#paint2_linear_3912_4466)"/> <path d="M301.697 314.685C155.931 383.551 -7.54209 345.287 -69.348 229.78C-68.0522 232.919 -66.6729 236.039 -65.2092 239.137C-7.29187 361.729 160.89 403.834 310.436 333.183C459.983 262.531 534.262 105.876 476.345 -16.7153C474.881 -19.8137 473.347 -22.8605 471.744 -25.8554C521.72 95.2413 447.464 245.819 301.697 314.685Z" fill="url(#paint3_linear_3912_4466)"/> <path d="M-86.8261 192.784C-25.0202 308.292 138.453 346.556 284.219 277.69C429.986 208.824 504.242 58.246 454.266 -62.8507C455.869 -59.8558 457.403 -56.8089 458.867 -53.7106C516.784 68.8809 442.504 225.536 292.958 296.187C143.412 366.839 -24.77 324.734 -82.6873 202.142C-84.151 199.044 -85.5304 195.924 -86.8261 192.784Z" fill="url(#paint4_linear_3912_4466)"/> <path d="M266.741 240.694C120.975 309.561 -42.4983 271.297 -104.304 155.789C-103.008 158.929 -101.629 162.049 -100.165 165.147C-42.2481 287.738 125.934 329.844 275.48 259.192C425.026 188.54 499.306 31.8856 441.389 -90.7059C439.925 -93.8042 438.391 -96.851 436.788 -99.8459C486.764 21.2507 412.508 171.828 266.741 240.694Z" fill="url(#paint5_linear_3912_4466)"/> <path d="M-121.782 118.794C-59.9764 234.302 103.496 272.565 249.263 203.699C395.03 134.833 469.286 -15.7445 419.31 -136.841C420.913 -133.846 422.447 -130.799 423.911 -127.701C481.828 -5.10964 407.548 151.545 258.002 222.197C108.456 292.849 -59.7262 250.743 -117.644 128.152C-119.107 125.054 -120.487 121.934 -121.782 118.794Z" fill="url(#paint6_linear_3912_4466)"/> <path d="M231.785 166.704C86.0183 235.57 -77.4545 197.306 -139.26 81.7986C-137.965 84.9384 -136.585 88.0583 -135.122 91.1564C-77.2043 213.748 90.978 255.853 240.524 185.202C390.07 114.55 464.35 -42.1049 406.432 -164.696C404.969 -167.795 403.434 -170.842 401.832 -173.836C451.808 -52.7398 377.552 97.8377 231.785 166.704Z" fill="url(#paint7_linear_3912_4466)"/> <path d="M-156.739 44.8034C-94.9326 160.311 68.5402 198.575 214.307 129.709C360.073 60.8425 434.33 -89.735 384.354 -210.832C385.956 -207.837 387.491 -204.79 388.954 -201.692C446.872 -79.1001 372.592 77.5545 223.046 148.206C73.4999 218.858 -94.6824 176.753 -152.6 54.1612C-154.063 51.0631 -155.443 47.9431 -156.739 44.8034Z" fill="url(#paint8_linear_3912_4466)"/> <path d="M196.829 92.7134C51.0621 161.58 -112.411 123.316 -174.217 7.80807C-172.921 10.9479 -171.542 14.0678 -170.078 17.1659C-112.161 139.757 56.0218 181.863 205.568 111.211C355.114 40.5592 429.394 -116.095 371.476 -238.687C370.012 -241.785 368.478 -244.832 366.876 -247.827C416.851 -126.73 342.595 23.8472 196.829 92.7134Z" fill="url(#paint9_linear_3912_4466)"/> <path d="M-191.695 -29.1872C-129.889 86.3207 33.584 124.584 179.351 55.7182C325.117 -13.148 399.373 -163.726 349.397 -284.822C351 -281.827 352.534 -278.78 353.998 -275.682C411.915 -153.091 337.636 3.564 188.09 74.2158C38.5436 144.868 -129.639 102.762 -187.556 -19.8293C-189.02 -22.9275 -190.399 -26.0474 -191.695 -29.1872Z" fill="url(#paint10_linear_3912_4466)"/> <path d="M161.873 18.7229C16.1059 87.5892 -147.367 49.3254 -209.173 -66.1824C-207.877 -63.0427 -206.498 -59.9227 -205.034 -56.8246C-147.117 65.7669 21.0655 107.872 170.612 37.2205C320.158 -33.4313 394.437 -190.086 336.52 -312.677C335.056 -315.776 333.522 -318.823 331.919 -321.818C381.895 -200.721 307.639 -50.1433 161.873 18.7229Z" fill="url(#paint11_linear_3912_4466)"/> <defs> <linearGradient id="paint0_linear_3912_4466" x1="-36.254" y1="26.2366" x2="354.085" y2="-272.364" gradientUnits="userSpaceOnUse"> <stop stop-color="white"/> <stop offset="1" stop-color="white" stop-opacity="0"/> </linearGradient> <linearGradient id="paint1_linear_3912_4466" x1="-36.254" y1="26.2366" x2="354.085" y2="-272.364" gradientUnits="userSpaceOnUse"> <stop stop-color="white"/> <stop offset="1" stop-color="white" stop-opacity="0"/> </linearGradient> <linearGradient id="paint2_linear_3912_4466" x1="-36.254" y1="26.2366" x2="354.085" y2="-272.364" gradientUnits="userSpaceOnUse"> <stop stop-color="white"/> <stop offset="1" stop-color="white" stop-opacity="0"/> </linearGradient> <linearGradient id="paint3_linear_3912_4466" x1="-36.254" y1="26.2366" x2="354.085" y2="-272.364" gradientUnits="userSpaceOnUse"> <stop stop-color="white"/> <stop offset="1" stop-color="white" stop-opacity="0"/> </linearGradient> <linearGradient id="paint4_linear_3912_4466" x1="-36.254" y1="26.2366" x2="354.085" y2="-272.364" gradientUnits="userSpaceOnUse"> <stop stop-color="white"/> <stop offset="1" stop-color="white" stop-opacity="0"/> </linearGradient> <linearGradient id="paint5_linear_3912_4466" x1="-36.254" y1="26.2366" x2="354.085" y2="-272.364" gradientUnits="userSpaceOnUse"> <stop stop-color="white"/> <stop offset="1" stop-color="white" stop-opacity="0"/> </linearGradient> <linearGradient id="paint6_linear_3912_4466" x1="-36.254" y1="26.2366" x2="354.085" y2="-272.364" gradientUnits="userSpaceOnUse"> <stop stop-color="white"/> <stop offset="1" stop-color="white" stop-opacity="0"/> </linearGradient> <linearGradient id="paint7_linear_3912_4466" x1="-36.254" y1="26.2366" x2="354.085" y2="-272.364" gradientUnits="userSpaceOnUse"> <stop stop-color="white"/> <stop offset="1" stop-color="white" stop-opacity="0"/> </linearGradient> <linearGradient id="paint8_linear_3912_4466" x1="-36.254" y1="26.2366" x2="354.085" y2="-272.364" gradientUnits="userSpaceOnUse"> <stop stop-color="white"/> <stop offset="1" stop-color="white" stop-opacity="0"/> </linearGradient> <linearGradient id="paint9_linear_3912_4466" x1="-36.254" y1="26.2366" x2="354.085" y2="-272.364" gradientUnits="userSpaceOnUse"> <stop stop-color="white"/> <stop offset="1" stop-color="white" stop-opacity="0"/> </linearGradient> <linearGradient id="paint10_linear_3912_4466" x1="-36.254" y1="26.2366" x2="354.085" y2="-272.364" gradientUnits="userSpaceOnUse"> <stop stop-color="white"/> <stop offset="1" stop-color="white" stop-opacity="0"/> </linearGradient> <linearGradient id="paint11_linear_3912_4466" x1="-36.254" y1="26.2366" x2="354.085" y2="-272.364" gradientUnits="userSpaceOnUse"> <stop stop-color="white"/> <stop offset="1" stop-color="white" stop-opacity="0"/> </linearGradient> </defs> </svg>
