<svg width="1920" height="1516" viewBox="0 0 1920 1516" fill="none" xmlns="http://www.w3.org/2000/svg">
<g opacity="0.21">
<path d="M343.574 1678.89C132.804 1778.47 -91.4385 1748.82 -165.608 1613.97C-164.129 1617.67 -162.53 1621.35 -160.812 1624.98C-92.8159 1768.91 137.599 1802.77 353.833 1700.61C570.068 1598.45 690.239 1398.96 622.243 1255.04C620.524 1251.4 618.702 1247.83 616.779 1244.33C673.843 1387.26 554.343 1579.32 343.574 1678.89Z" fill="url(#paint0_linear_3915_4850)"/>
<path d="M323.054 1635.46C112.284 1735.04 -111.958 1705.38 -186.128 1570.53C-184.648 1574.24 -183.05 1577.91 -181.332 1581.55C-113.336 1725.48 117.079 1759.33 333.314 1657.18C549.548 1555.02 669.719 1355.53 601.723 1211.6C600.005 1207.97 598.182 1204.4 596.259 1200.9C653.324 1343.83 533.824 1535.88 323.054 1635.46Z" fill="url(#paint1_linear_3915_4850)"/>
<path d="M-206.648 1527.1C-132.478 1661.95 91.7643 1691.6 302.534 1592.03C513.304 1492.45 632.804 1300.4 575.74 1157.47C577.663 1160.96 579.485 1164.53 581.204 1168.17C649.2 1312.09 529.029 1511.58 312.794 1613.74C96.5594 1715.9 -133.855 1682.04 -201.851 1538.12C-203.57 1534.48 -205.168 1530.81 -206.648 1527.1Z" fill="url(#paint2_linear_3915_4850)"/>
<path d="M282.015 1548.59C71.2447 1648.17 -152.997 1618.52 -227.167 1483.67C-225.688 1487.37 -224.089 1491.05 -222.371 1494.68C-154.375 1638.61 76.0397 1672.47 292.274 1570.31C508.509 1468.15 628.68 1268.66 560.684 1124.74C558.965 1121.1 557.143 1117.53 555.22 1114.04C612.284 1256.97 492.784 1449.02 282.015 1548.59Z" fill="url(#paint3_linear_3915_4850)"/>
<path d="M-247.687 1440.24C-173.517 1575.08 50.725 1604.74 261.495 1505.16C472.265 1405.58 591.765 1213.53 534.7 1070.6C536.624 1074.1 538.446 1077.67 540.164 1081.3C608.16 1225.23 487.989 1424.72 271.755 1526.88C55.52 1629.03 -174.894 1595.18 -242.891 1451.25C-244.609 1447.61 -246.207 1443.94 -247.687 1440.24Z" fill="url(#paint4_linear_3915_4850)"/>
<path d="M240.975 1461.73C30.2054 1561.3 -194.037 1531.65 -268.207 1396.8C-266.727 1400.51 -265.129 1404.18 -263.41 1407.82C-195.414 1551.74 35.0004 1585.6 251.235 1483.44C467.47 1381.28 587.641 1181.79 519.645 1037.87C517.926 1034.23 516.104 1030.67 514.181 1027.17C571.245 1170.1 451.745 1362.15 240.975 1461.73Z" fill="url(#paint5_linear_3915_4850)"/>
<path d="M-288.726 1353.37C-214.556 1488.22 9.68571 1517.87 220.456 1418.29C431.225 1318.72 550.725 1126.67 493.661 983.736C495.584 987.232 497.407 990.799 499.125 994.437C567.121 1138.36 446.95 1337.85 230.715 1440.01C14.4807 1542.17 -215.934 1508.31 -283.93 1364.38C-285.648 1360.75 -287.247 1357.07 -288.726 1353.37Z" fill="url(#paint6_linear_3915_4850)"/>
<path d="M199.936 1374.86C-10.8339 1474.44 -235.076 1444.78 -309.246 1309.94C-307.766 1313.64 -306.168 1317.31 -304.45 1320.95C-236.453 1464.88 -6.03892 1498.74 210.196 1396.58C426.43 1294.42 546.601 1094.93 478.605 951.004C476.887 947.366 475.065 943.799 473.141 940.303C530.206 1083.23 410.706 1275.28 199.936 1374.86Z" fill="url(#paint7_linear_3915_4850)"/>
<path d="M-329.766 1266.5C-255.596 1401.35 -31.3536 1431 179.416 1331.43C390.186 1231.85 509.686 1039.8 452.622 896.869C454.545 900.366 456.367 903.933 458.086 907.57C526.082 1051.5 405.911 1250.99 189.676 1353.14C-26.5586 1455.3 -256.973 1421.44 -324.969 1277.52C-326.688 1273.88 -328.286 1270.21 -329.766 1266.5Z" fill="url(#paint8_linear_3915_4850)"/>
<path d="M158.897 1287.99C-51.8733 1387.57 -276.115 1357.92 -350.285 1223.07C-348.806 1226.78 -347.207 1230.45 -345.489 1234.09C-277.493 1378.01 -47.0782 1411.87 169.156 1309.71C385.391 1207.55 505.562 1008.06 437.566 864.137C435.848 860.5 434.025 856.933 432.102 853.436C489.166 996.366 369.666 1188.42 158.897 1287.99Z" fill="url(#paint9_linear_3915_4850)"/>
<path d="M-370.805 1179.64C-296.635 1314.48 -72.3929 1344.14 138.377 1244.56C349.147 1144.98 468.647 952.933 411.582 810.003C413.506 813.499 415.328 817.067 417.046 820.704C485.043 964.629 364.871 1164.12 148.637 1266.28C-67.5979 1368.44 -298.012 1334.58 -366.009 1190.65C-367.727 1187.01 -369.325 1183.34 -370.805 1179.64Z" fill="url(#paint10_linear_3915_4850)"/>
<path d="M117.857 1201.13C-92.9126 1300.7 -317.155 1271.05 -391.324 1136.2C-389.845 1139.91 -388.247 1143.58 -386.528 1147.22C-318.532 1291.14 -88.1176 1325 128.117 1222.84C344.352 1120.69 464.523 921.196 396.527 777.271C394.808 773.633 392.986 770.066 391.063 766.57C448.127 909.5 328.627 1101.55 117.857 1201.13Z" fill="url(#paint11_linear_3915_4850)"/>
<path d="M1818.57 982.04C1607.8 1081.62 1383.55 1051.96 1309.38 917.115C1310.86 920.821 1312.46 924.494 1314.18 928.131C1382.18 1072.06 1612.59 1105.91 1828.83 1003.76C2045.06 901.598 2165.23 702.108 2097.24 558.183C2095.52 554.546 2093.69 550.979 2091.77 547.482C2148.84 690.412 2029.34 882.463 1818.57 982.04Z" fill="url(#paint12_linear_3915_4850)"/>
<path d="M1798.05 938.607C1587.28 1038.18 1363.03 1008.53 1288.86 873.682C1290.34 877.388 1291.94 881.061 1293.66 884.698C1361.66 1028.62 1592.07 1062.48 1808.31 960.323C2024.54 858.165 2144.71 658.675 2076.72 514.75C2075 511.113 2073.18 507.546 2071.25 504.049C2128.32 646.979 2008.82 839.03 1798.05 938.607Z" fill="url(#paint13_linear_3915_4850)"/>
<path d="M1268.35 830.249C1342.51 965.098 1566.76 994.75 1777.53 895.174C1988.3 795.597 2107.8 603.546 2050.73 460.616C2052.66 464.112 2054.48 467.68 2056.2 471.317C2124.19 615.242 2004.02 814.732 1787.79 916.89C1571.55 1019.05 1341.14 985.19 1273.14 841.265C1271.42 837.628 1269.82 833.955 1268.35 830.249Z" fill="url(#paint14_linear_3915_4850)"/>
<path d="M1757.01 851.74C1546.24 951.317 1322 921.665 1247.83 786.816C1249.31 790.522 1250.9 794.194 1252.62 797.832C1320.62 941.757 1551.03 975.615 1767.27 873.457C1983.5 771.299 2103.67 571.809 2035.68 427.884C2033.96 424.246 2032.14 420.679 2030.21 417.183C2087.28 560.113 1967.78 752.164 1757.01 851.74Z" fill="url(#paint15_linear_3915_4850)"/>
<path d="M1227.31 743.383C1301.48 878.231 1525.72 907.884 1736.49 808.307C1947.26 708.731 2066.76 516.68 2009.69 373.75C2011.62 377.246 2013.44 380.813 2015.16 384.451C2083.15 528.376 1962.98 727.865 1746.75 830.024C1530.51 932.182 1300.1 898.324 1232.1 754.399C1230.38 750.761 1228.79 747.088 1227.31 743.383Z" fill="url(#paint16_linear_3915_4850)"/>
<path d="M1715.97 764.874C1505.2 864.45 1280.96 834.798 1206.79 699.949C1208.27 703.655 1209.86 707.328 1211.58 710.965C1279.58 854.89 1509.99 888.749 1726.23 786.591C1942.46 684.432 2062.63 484.942 1994.64 341.017C1992.92 337.38 1991.1 333.813 1989.17 330.316C2046.24 473.246 1926.74 665.298 1715.97 764.874Z" fill="url(#paint17_linear_3915_4850)"/>
<path d="M1186.27 656.516C1260.44 791.365 1484.68 821.017 1695.45 721.441C1906.22 621.864 2025.72 429.813 1968.65 286.883C1970.58 290.38 1972.4 293.947 1974.12 297.584C2042.11 441.509 1921.94 640.999 1705.71 743.157C1489.47 845.316 1259.06 811.457 1191.06 667.532C1189.34 663.895 1187.75 660.222 1186.27 656.516Z" fill="url(#paint18_linear_3915_4850)"/>
<path d="M1674.93 678.008C1464.16 777.584 1239.92 747.932 1165.75 613.083C1167.23 616.789 1168.82 620.462 1170.54 624.099C1238.54 768.024 1468.95 801.883 1685.19 699.724C1901.42 597.566 2021.59 398.076 1953.6 254.151C1951.88 250.514 1950.06 246.947 1948.13 243.45C2005.2 386.38 1885.7 578.431 1674.93 678.008Z" fill="url(#paint19_linear_3915_4850)"/>
<path d="M1145.23 569.65C1219.4 704.499 1443.64 734.151 1654.41 634.574C1865.18 534.998 1984.68 342.947 1927.61 200.017C1929.54 203.513 1931.36 207.08 1933.08 210.718C2001.07 354.643 1880.9 554.133 1664.67 656.291C1448.43 758.449 1218.02 724.591 1150.02 580.666C1148.31 577.029 1146.71 573.356 1145.23 569.65Z" fill="url(#paint20_linear_3915_4850)"/>
<path d="M1633.89 591.141C1423.12 690.718 1198.88 661.065 1124.71 526.217C1126.19 529.923 1127.79 533.595 1129.5 537.233C1197.5 681.158 1427.91 715.016 1644.15 612.858C1860.38 510.699 1980.55 311.21 1912.56 167.285C1910.84 163.647 1909.02 160.08 1907.09 156.584C1964.16 299.514 1844.66 491.565 1633.89 591.141Z" fill="url(#paint21_linear_3915_4850)"/>
<path d="M1104.19 482.784C1178.36 617.632 1402.6 647.285 1613.37 547.708C1824.14 448.132 1943.64 256.08 1886.58 113.15C1888.5 116.647 1890.32 120.214 1892.04 123.852C1960.04 267.776 1839.86 467.266 1623.63 569.425C1407.39 671.583 1176.98 637.724 1108.98 493.799C1107.27 490.162 1105.67 486.489 1104.19 482.784Z" fill="url(#paint22_linear_3915_4850)"/>
<path d="M1592.85 504.275C1382.08 603.851 1157.84 574.199 1083.67 439.35C1085.15 443.056 1086.75 446.729 1088.46 450.366C1156.46 594.291 1386.88 628.15 1603.11 525.991C1819.34 423.833 1939.52 224.343 1871.52 80.4183C1869.8 76.7809 1867.98 73.2137 1866.06 69.7173C1923.12 212.647 1803.62 404.698 1592.85 504.275Z" fill="url(#paint23_linear_3915_4850)"/>
<path d="M728.141 549.925C517.371 649.502 398.641 843.183 456.67 988.155C454.722 984.606 452.875 980.986 451.131 977.295C382.135 831.253 501.496 630.048 717.73 527.889C933.965 425.731 1165.19 461.305 1234.19 607.347C1235.93 611.038 1237.55 614.764 1239.06 618.523C1163.92 481.632 938.911 450.349 728.141 549.925Z" fill="url(#paint24_linear_3915_4850)"/>
<path d="M748.962 593.997C538.193 693.574 419.462 887.255 477.492 1032.23C475.544 1028.68 473.697 1025.06 471.953 1021.37C402.957 875.325 522.317 674.12 738.552 571.961C954.786 469.803 1186.01 505.377 1255.01 651.419C1256.75 655.11 1258.37 658.836 1259.88 662.595C1184.74 525.704 959.732 494.421 748.962 593.997Z" fill="url(#paint25_linear_3915_4850)"/>
<path d="M498.313 1076.3C440.284 931.327 559.014 737.646 769.784 638.069C980.554 538.493 1205.57 569.776 1280.7 706.667C1279.2 702.908 1277.57 699.182 1275.83 695.491C1206.83 549.449 975.608 513.875 759.373 616.033C543.138 718.192 423.778 919.397 492.774 1065.44C494.518 1069.13 496.365 1072.75 498.313 1076.3Z" fill="url(#paint26_linear_3915_4850)"/>
<path d="M790.605 682.141C579.835 781.718 461.105 975.399 519.135 1120.37C517.187 1116.82 515.339 1113.2 513.596 1109.51C444.6 963.469 563.96 762.263 780.195 660.105C996.429 557.947 1227.65 593.521 1296.65 739.563C1298.39 743.254 1300.02 746.98 1301.52 750.739C1226.39 613.848 1001.38 582.565 790.605 682.141Z" fill="url(#paint27_linear_3915_4850)"/>
<path d="M539.956 1164.44C481.927 1019.47 600.657 825.79 811.427 726.213C1022.2 626.637 1247.21 657.92 1322.34 794.811C1320.84 791.052 1319.22 787.326 1317.47 783.635C1248.48 637.593 1017.25 602.019 801.016 704.177C584.781 806.335 465.421 1007.54 534.417 1153.58C536.161 1157.27 538.008 1160.89 539.956 1164.44Z" fill="url(#paint28_linear_3915_4850)"/>
<path d="M832.248 770.285C621.478 869.861 502.748 1063.54 560.778 1208.51C558.829 1204.97 556.982 1201.35 555.239 1197.65C486.242 1051.61 605.603 850.407 821.837 748.249C1038.07 646.091 1269.3 681.665 1338.29 827.707C1340.04 831.398 1341.66 835.124 1343.17 838.883C1268.03 701.992 1043.02 670.709 832.248 770.285Z" fill="url(#paint29_linear_3915_4850)"/>
<path d="M581.599 1252.59C523.569 1107.61 642.3 913.933 853.07 814.357C1063.84 714.78 1288.85 746.064 1363.99 882.955C1362.48 879.196 1360.86 875.47 1359.11 871.779C1290.12 725.737 1058.89 690.163 842.659 792.321C626.424 894.479 507.064 1095.68 576.06 1241.73C577.804 1245.42 579.651 1249.04 581.599 1252.59Z" fill="url(#paint30_linear_3915_4850)"/>
<path d="M873.891 858.429C663.121 958.005 544.391 1151.69 602.42 1296.66C600.472 1293.11 598.625 1289.49 596.881 1285.8C527.885 1139.76 647.246 938.551 863.48 836.393C1079.71 734.235 1310.94 769.809 1379.94 915.85C1381.68 919.541 1383.3 923.268 1384.81 927.027C1309.67 790.136 1084.66 758.852 873.891 858.429Z" fill="url(#paint31_linear_3915_4850)"/>
<path d="M623.242 1340.73C565.212 1195.76 683.943 1002.08 894.712 902.501C1105.48 802.924 1330.49 834.208 1405.63 971.099C1404.12 967.34 1402.5 963.613 1400.76 959.922C1331.76 813.881 1100.54 778.306 884.302 880.465C668.067 982.623 548.707 1183.83 617.703 1329.87C619.446 1333.56 621.294 1337.18 623.242 1340.73Z" fill="url(#paint32_linear_3915_4850)"/>
<path d="M915.534 946.573C704.764 1046.15 586.034 1239.83 644.063 1384.8C642.115 1381.25 640.268 1377.63 638.524 1373.94C569.528 1227.9 688.888 1026.7 905.123 924.537C1121.36 822.378 1352.58 857.953 1421.58 1003.99C1423.32 1007.69 1424.95 1011.41 1426.45 1015.17C1351.32 878.28 1126.3 846.996 915.534 946.573Z" fill="url(#paint33_linear_3915_4850)"/>
<path d="M664.885 1428.87C606.855 1283.9 725.585 1090.22 936.355 990.645C1147.13 891.068 1372.14 922.351 1447.27 1059.24C1445.77 1055.48 1444.14 1051.76 1442.4 1048.07C1373.4 902.025 1142.18 866.45 925.945 968.609C709.71 1070.77 590.349 1271.97 659.346 1418.01C661.089 1421.71 662.937 1425.33 664.885 1428.87Z" fill="url(#paint34_linear_3915_4850)"/>
<path d="M957.177 1034.72C746.407 1134.29 627.677 1327.97 685.706 1472.95C683.758 1469.4 681.911 1465.78 680.167 1462.09C611.171 1316.04 730.531 1114.84 946.766 1012.68C1163 910.522 1394.23 946.097 1463.22 1092.14C1464.97 1095.83 1466.59 1099.56 1468.09 1103.31C1392.96 966.423 1167.95 935.14 957.177 1034.72Z" fill="url(#paint35_linear_3915_4850)"/>
</g>
<defs>
<linearGradient id="paint0_linear_3915_4850" x1="-159.58" y1="1231.13" x2="377.798" y2="778.434" gradientUnits="userSpaceOnUse">
<stop stop-color="white"/>
<stop offset="1" stop-color="white" stop-opacity="0"/>
</linearGradient>
<linearGradient id="paint1_linear_3915_4850" x1="-159.58" y1="1231.13" x2="377.798" y2="778.434" gradientUnits="userSpaceOnUse">
<stop stop-color="white"/>
<stop offset="1" stop-color="white" stop-opacity="0"/>
</linearGradient>
<linearGradient id="paint2_linear_3915_4850" x1="-159.58" y1="1231.13" x2="377.798" y2="778.434" gradientUnits="userSpaceOnUse">
<stop stop-color="white"/>
<stop offset="1" stop-color="white" stop-opacity="0"/>
</linearGradient>
<linearGradient id="paint3_linear_3915_4850" x1="-159.58" y1="1231.13" x2="377.798" y2="778.434" gradientUnits="userSpaceOnUse">
<stop stop-color="white"/>
<stop offset="1" stop-color="white" stop-opacity="0"/>
</linearGradient>
<linearGradient id="paint4_linear_3915_4850" x1="-159.58" y1="1231.13" x2="377.798" y2="778.434" gradientUnits="userSpaceOnUse">
<stop stop-color="white"/>
<stop offset="1" stop-color="white" stop-opacity="0"/>
</linearGradient>
<linearGradient id="paint5_linear_3915_4850" x1="-159.58" y1="1231.13" x2="377.798" y2="778.434" gradientUnits="userSpaceOnUse">
<stop stop-color="white"/>
<stop offset="1" stop-color="white" stop-opacity="0"/>
</linearGradient>
<linearGradient id="paint6_linear_3915_4850" x1="-159.58" y1="1231.13" x2="377.798" y2="778.434" gradientUnits="userSpaceOnUse">
<stop stop-color="white"/>
<stop offset="1" stop-color="white" stop-opacity="0"/>
</linearGradient>
<linearGradient id="paint7_linear_3915_4850" x1="-159.58" y1="1231.13" x2="377.798" y2="778.434" gradientUnits="userSpaceOnUse">
<stop stop-color="white"/>
<stop offset="1" stop-color="white" stop-opacity="0"/>
</linearGradient>
<linearGradient id="paint8_linear_3915_4850" x1="-159.58" y1="1231.13" x2="377.798" y2="778.434" gradientUnits="userSpaceOnUse">
<stop stop-color="white"/>
<stop offset="1" stop-color="white" stop-opacity="0"/>
</linearGradient>
<linearGradient id="paint9_linear_3915_4850" x1="-159.58" y1="1231.13" x2="377.798" y2="778.434" gradientUnits="userSpaceOnUse">
<stop stop-color="white"/>
<stop offset="1" stop-color="white" stop-opacity="0"/>
</linearGradient>
<linearGradient id="paint10_linear_3915_4850" x1="-159.58" y1="1231.13" x2="377.798" y2="778.434" gradientUnits="userSpaceOnUse">
<stop stop-color="white"/>
<stop offset="1" stop-color="white" stop-opacity="0"/>
</linearGradient>
<linearGradient id="paint11_linear_3915_4850" x1="-159.58" y1="1231.13" x2="377.798" y2="778.434" gradientUnits="userSpaceOnUse">
<stop stop-color="white"/>
<stop offset="1" stop-color="white" stop-opacity="0"/>
</linearGradient>
<linearGradient id="paint12_linear_3915_4850" x1="1315.41" y1="534.277" x2="1852.79" y2="81.5812" gradientUnits="userSpaceOnUse">
<stop stop-color="white"/>
<stop offset="1" stop-color="white" stop-opacity="0"/>
</linearGradient>
<linearGradient id="paint13_linear_3915_4850" x1="1315.41" y1="534.277" x2="1852.79" y2="81.5812" gradientUnits="userSpaceOnUse">
<stop stop-color="white"/>
<stop offset="1" stop-color="white" stop-opacity="0"/>
</linearGradient>
<linearGradient id="paint14_linear_3915_4850" x1="1315.41" y1="534.277" x2="1852.79" y2="81.5812" gradientUnits="userSpaceOnUse">
<stop stop-color="white"/>
<stop offset="1" stop-color="white" stop-opacity="0"/>
</linearGradient>
<linearGradient id="paint15_linear_3915_4850" x1="1315.41" y1="534.277" x2="1852.79" y2="81.5812" gradientUnits="userSpaceOnUse">
<stop stop-color="white"/>
<stop offset="1" stop-color="white" stop-opacity="0"/>
</linearGradient>
<linearGradient id="paint16_linear_3915_4850" x1="1315.41" y1="534.277" x2="1852.79" y2="81.5812" gradientUnits="userSpaceOnUse">
<stop stop-color="white"/>
<stop offset="1" stop-color="white" stop-opacity="0"/>
</linearGradient>
<linearGradient id="paint17_linear_3915_4850" x1="1315.41" y1="534.277" x2="1852.79" y2="81.5812" gradientUnits="userSpaceOnUse">
<stop stop-color="white"/>
<stop offset="1" stop-color="white" stop-opacity="0"/>
</linearGradient>
<linearGradient id="paint18_linear_3915_4850" x1="1315.41" y1="534.277" x2="1852.79" y2="81.5812" gradientUnits="userSpaceOnUse">
<stop stop-color="white"/>
<stop offset="1" stop-color="white" stop-opacity="0"/>
</linearGradient>
<linearGradient id="paint19_linear_3915_4850" x1="1315.41" y1="534.277" x2="1852.79" y2="81.5812" gradientUnits="userSpaceOnUse">
<stop stop-color="white"/>
<stop offset="1" stop-color="white" stop-opacity="0"/>
</linearGradient>
<linearGradient id="paint20_linear_3915_4850" x1="1315.41" y1="534.277" x2="1852.79" y2="81.5812" gradientUnits="userSpaceOnUse">
<stop stop-color="white"/>
<stop offset="1" stop-color="white" stop-opacity="0"/>
</linearGradient>
<linearGradient id="paint21_linear_3915_4850" x1="1315.41" y1="534.277" x2="1852.79" y2="81.5812" gradientUnits="userSpaceOnUse">
<stop stop-color="white"/>
<stop offset="1" stop-color="white" stop-opacity="0"/>
</linearGradient>
<linearGradient id="paint22_linear_3915_4850" x1="1315.41" y1="534.277" x2="1852.79" y2="81.5812" gradientUnits="userSpaceOnUse">
<stop stop-color="white"/>
<stop offset="1" stop-color="white" stop-opacity="0"/>
</linearGradient>
<linearGradient id="paint23_linear_3915_4850" x1="1315.41" y1="534.277" x2="1852.79" y2="81.5812" gradientUnits="userSpaceOnUse">
<stop stop-color="white"/>
<stop offset="1" stop-color="white" stop-opacity="0"/>
</linearGradient>
<linearGradient id="paint24_linear_3915_4850" x1="758.387" y1="1231.19" x2="1449.53" y2="1100.97" gradientUnits="userSpaceOnUse">
<stop stop-color="white"/>
<stop offset="1" stop-color="white" stop-opacity="0"/>
</linearGradient>
<linearGradient id="paint25_linear_3915_4850" x1="758.387" y1="1231.19" x2="1449.53" y2="1100.97" gradientUnits="userSpaceOnUse">
<stop stop-color="white"/>
<stop offset="1" stop-color="white" stop-opacity="0"/>
</linearGradient>
<linearGradient id="paint26_linear_3915_4850" x1="758.387" y1="1231.19" x2="1449.53" y2="1100.97" gradientUnits="userSpaceOnUse">
<stop stop-color="white"/>
<stop offset="1" stop-color="white" stop-opacity="0"/>
</linearGradient>
<linearGradient id="paint27_linear_3915_4850" x1="758.387" y1="1231.19" x2="1449.53" y2="1100.97" gradientUnits="userSpaceOnUse">
<stop stop-color="white"/>
<stop offset="1" stop-color="white" stop-opacity="0"/>
</linearGradient>
<linearGradient id="paint28_linear_3915_4850" x1="758.387" y1="1231.19" x2="1449.53" y2="1100.97" gradientUnits="userSpaceOnUse">
<stop stop-color="white"/>
<stop offset="1" stop-color="white" stop-opacity="0"/>
</linearGradient>
<linearGradient id="paint29_linear_3915_4850" x1="758.387" y1="1231.19" x2="1449.53" y2="1100.97" gradientUnits="userSpaceOnUse">
<stop stop-color="white"/>
<stop offset="1" stop-color="white" stop-opacity="0"/>
</linearGradient>
<linearGradient id="paint30_linear_3915_4850" x1="758.387" y1="1231.19" x2="1449.53" y2="1100.97" gradientUnits="userSpaceOnUse">
<stop stop-color="white"/>
<stop offset="1" stop-color="white" stop-opacity="0"/>
</linearGradient>
<linearGradient id="paint31_linear_3915_4850" x1="758.387" y1="1231.19" x2="1449.53" y2="1100.97" gradientUnits="userSpaceOnUse">
<stop stop-color="white"/>
<stop offset="1" stop-color="white" stop-opacity="0"/>
</linearGradient>
<linearGradient id="paint32_linear_3915_4850" x1="758.387" y1="1231.19" x2="1449.53" y2="1100.97" gradientUnits="userSpaceOnUse">
<stop stop-color="white"/>
<stop offset="1" stop-color="white" stop-opacity="0"/>
</linearGradient>
<linearGradient id="paint33_linear_3915_4850" x1="758.387" y1="1231.19" x2="1449.53" y2="1100.97" gradientUnits="userSpaceOnUse">
<stop stop-color="white"/>
<stop offset="1" stop-color="white" stop-opacity="0"/>
</linearGradient>
<linearGradient id="paint34_linear_3915_4850" x1="758.387" y1="1231.19" x2="1449.53" y2="1100.97" gradientUnits="userSpaceOnUse">
<stop stop-color="white"/>
<stop offset="1" stop-color="white" stop-opacity="0"/>
</linearGradient>
<linearGradient id="paint35_linear_3915_4850" x1="758.387" y1="1231.19" x2="1449.53" y2="1100.97" gradientUnits="userSpaceOnUse">
<stop stop-color="white"/>
<stop offset="1" stop-color="white" stop-opacity="0"/>
</linearGradient>
</defs>
</svg>
